
        <svg xmlns="http://www.w3.org/2000/svg" xmlns:xlink="http://www.w3.org/1999/xlink" version="1.1" width="3240" height="1958.4" viewBox="0 0 3240 1958.4">
			
			<g transform="scale(12.000000000000002) translate(10, 10)">
				<defs id="SvgjsDefs13096"/><g id="SvgjsG13097" featureKey="symbolFeature-0" transform="matrix(1.275,0,0,1.275,62.85,48.85)" fill="#fff"><path xmlns="http://www.w3.org/2000/svg" d="M68.9,26H31.1c-2.8,0-5.1,2.3-5.1,5.1v37.7c0,2.9,2.3,5.2,5.1,5.2h37.7c2.8,0,5.1-2.3,5.1-5.1V31.1C74,28.3,71.7,26,68.9,26  z M39.7,63.7c0,0.9-0.8,1.7-1.7,1.7h-1.7c-0.9,0-1.7-0.8-1.7-1.7v-9.4c0-0.9,0.8-1.7,1.7-1.7H38c0.9,0,1.7,0.8,1.7,1.7V63.7z   M48.3,63.7c0,0.9-0.8,1.7-1.7,1.7h-1.7c-0.9,0-1.7-0.8-1.7-1.7V41.4c0-0.9,0.8-1.7,1.7-1.7h1.7c0.9,0,1.7,0.8,1.7,1.7V63.7z   M56.9,63.7c0,0.9-0.8,1.7-1.7,1.7h-1.7c-0.9,0-1.7-0.8-1.7-1.7V36.3c0-0.9,0.8-1.7,1.7-1.7h1.7c0.9,0,1.7,0.8,1.7,1.7V63.7z   M65.4,63.7c0,0.9-0.8,1.7-1.7,1.7H62c-0.9,0-1.7-0.8-1.7-1.7V47.4c0-0.9,0.8-1.7,1.7-1.7h1.7c0.9,0,1.7,0.8,1.7,1.7V63.7z"/></g><g id="SvgjsG13098" featureKey="nameFeature-0" transform="matrix(1.1008524523815546,0,0,1.1008524523815546,38.49502329961085,-13.631955015726575)" fill="#fff"><path d="M21.797 40 l-2.4609 -6.8359 l-12.637 0 l-2.4609 6.8359 l-2.8711 0 l10.039 -27.246 l3.2031 0 l10.039 27.246 l-2.8516 0 z M7.5977 30.6836 l10.84 0 l-5.4297 -15.078 z M43.341890625000005 12.754000000000001 l2.6758 0 l0 27.246 l-2.6563 0 l-15.605 -22.91 l0 22.91 l-2.6367 0 l0 -27.246 l2.6367 0 l15.586 22.813 l0 -22.813 z M63.382625000000004 12.754000000000001 l0 2.5 l-7.168 0 l0 24.746 l-2.6953 0 l0 -24.746 l-7.168 0 l0 -2.5 l17.031 0 z M81.021015625 12.754000000000001 l2.7148 0 l0 27.246 l-2.7148 0 l0 -12.402 l-14.57 0 l0 12.402 l-2.7539 0 l0 -27.246 l2.7539 0 l0 12.363 l14.57 0 l0 -12.363 z M98.89484375 40.37109 c-7.5391 0 -13.438 -5.2344 -13.438 -14.004 c0 -8.75 5.8984 -13.984 13.438 -13.984 c7.4805 0 13.418 5.2344 13.418 13.984 c0 8.7695 -5.9375 14.004 -13.418 14.004 z M98.89484375 37.7539 c5.9375 0 10.684 -4.082 10.684 -11.387 c0 -7.2656 -4.7461 -11.328 -10.684 -11.328 c-5.957 0 -10.742 4.0625 -10.742 11.328 c0 7.3047 4.7852 11.387 10.742 11.387 z M132.255953125 12.754000000000001 l2.6758 0 l0 27.246 l-2.6563 0 l-15.605 -22.91 l0 22.91 l-2.6367 0 l0 -27.246 l2.6367 0 l15.586 22.813 l0 -22.813 z M155.7926875 12.754000000000001 l-8.9648 14.258 l0 12.988 l-2.7539 0 l0 -12.988 l-8.9648 -14.258 l3.1641 0 l7.1875 11.797 l7.168 -11.797 l3.1641 0 z"/></g><g id="SvgjsG13099" featureKey="sloganFeature-0" transform="matrix(0.8040169440289571,0,0,0.8040169440289571,-0.44751590649671597,46.281136410646354)" fill="#fff"><path d="M4.3652 20 l-3.8086 -13.926 l2.4316 0 l3.0078 11.006 l3.291 -11.006 l2.0117 0 l3.2813 11.006 l3.0273 -11.006 l2.4219 0 l-3.8086 13.926 l-2.9102 0 l-3.0176 -9.6484 l-3.0176 9.6484 l-2.9102 0 z M35.07272890625 8.154 l-5.4102 0 l0 3.8574 l4.7852 0 l0 2.0605 l-4.7852 0 l0 3.8379 l5.4102 0 l0 2.0898 l-7.7734 0 l0 -13.926 l7.7734 0 l0 2.0801 z M50.0185515625 12.685500000000001 c1.6113 0.42969 2.6953 1.5137 2.6953 3.4766 c0 2.2754 -1.4746 3.8379 -4.1602 3.8379 l-5.5762 0 l0 -13.926 l4.3652 0 c2.7539 0 4.3652 1.4746 4.3652 3.75 c0 1.2793 -0.57617 2.3242 -1.6895 2.8613 z M47.3525515625 8.047 l-2.1191 0 l0 3.916 l2.3535 0 c1.25 0 1.9531 -0.88867 1.9531 -1.9922 c0 -1.0938 -0.76172 -1.9238 -2.1875 -1.9238 z M48.1337515625 17.9687 c1.582 0 2.3145 -0.9668 2.3145 -2.0605 c0 -1.1426 -0.75195 -2.0996 -2.4023 -2.0996 l-2.8125 0 l0 4.1602 l2.9004 0 z M64.83735859375 20.18555 c-2.9492 0 -5.1563 -1.4063 -5.6055 -3.8672 l2.4023 -0.55664 c0.25391 1.6016 1.5723 2.4805 3.291 2.4805 c1.3574 0 2.5879 -0.57617 2.5684 -2.041 c-0.019531 -1.5234 -1.709 -1.9629 -3.5352 -2.4805 c-2.1094 -0.61523 -4.2773 -1.3184 -4.2773 -3.877 c0 -2.5977 2.1289 -3.9648 4.7754 -3.9648 c2.4414 0 4.7559 1.0254 5.293 3.5254 l-2.2559 0.56641 c-0.3125 -1.4844 -1.4648 -2.1387 -2.9199 -2.1387 c-1.2988 0 -2.5293 0.55664 -2.5293 1.9727 c0 1.2891 1.4746 1.6895 3.1641 2.1582 c2.1777 0.60547 4.6973 1.3477 4.6973 4.1406 c0 2.8809 -2.4121 4.082 -5.0684 4.082 z M77.6250125 20 l0 -13.926 l2.334 0 l0 13.926 l-2.334 0 z M96.35006328125 6.074 l0 2.0801 l-3.4375 0 l0 11.846 l-2.3242 0 l0 -11.846 l-3.4473 0 l0 -2.0801 l9.209 0 z M111.3056390625 8.154 l-5.4102 0 l0 3.8574 l4.7852 0 l0 2.0605 l-4.7852 0 l0 3.8379 l5.4102 0 l0 2.0898 l-7.7734 0 l0 -13.926 l7.7734 0 l0 2.0801 z M141.050765625 20 l-2.6172 0 l-1.0156 -1.3086 c-1.2793 0.9375 -2.8418 1.5039 -4.541 1.5039 c-2.6563 0 -4.668 -1.3672 -4.668 -3.9258 c0 -2.0508 1.2988 -3.0566 3.75 -4.5996 l-0.019531 -0.019531 c-1.0352 -1.3379 -1.4453 -2.1387 -1.4453 -3.0176 c0 -0.88867 0.39063 -1.5723 1.0254 -2.041 c0.61523 -0.46875 1.4844 -0.72266 2.4512 -0.72266 c2.0801 0 3.5254 1.1035 3.5254 2.793 c0 1.2695 -0.81055 2.2363 -2.7246 3.3984 l2.8516 3.6035 c0.78125 -1.1328 1.2207 -2.4805 1.2207 -3.6914 l2.0605 0 c0 1.9434 -0.74219 3.8477 -1.9922 5.3223 z M132.994165625 7.773 c-0.22461 0.21484 -0.36133 0.53711 -0.36133 0.92773 c0 0.55664 0.27344 0.95703 0.9375 1.8359 l0.16602 0.21484 c1.1426 -0.71289 1.7285 -1.3672 1.7285 -2.1094 c0 -0.79102 -0.66406 -1.25 -1.4355 -1.25 c-0.41016 0 -0.77148 0.12695 -1.0352 0.38086 z M132.964865625 18.3203 c1.2402 0 2.3535 -0.44922 3.2617 -1.1621 l-3.1738 -4.0723 c-1.6699 1.0352 -2.7441 1.7285 -2.7441 3.125 c0 1.416 1.123 2.1094 2.6563 2.1094 z M174.23388281249998 20 l-2.3145 0 l-0.91797 -10.996 l-3.9941 10.996 l-1.4648 0 l-3.9746 -10.977 l-0.92773 10.977 l-2.3242 0 l1.1133 -13.926 l3.252 0 l3.584 9.8438 l3.6133 -9.8438 l3.252 0 z M191.52313671875 20 l-1.1035 -3.0957 l-6.084 0 l-1.0938 3.0957 l-2.4121 0 l5.127 -13.926 l2.8418 0 l5.127 13.926 l-2.4023 0 z M185.04833671875 14.9023 l4.668 0 l-2.334 -6.582 z M208.539103125 20 l-3.6133 -6.2109 l-1.5039 0 l0 6.2109 l-2.334 0 l0 -13.926 l4.834 0 c3.0176 0 4.3457 1.8066 4.3457 4.043 c0 1.9434 -1.1523 3.252 -2.998 3.584 l4.0137 6.2988 l-2.7441 0 z M203.421903125 8.047 l0 4.0137 l2.1582 0 c1.709 0 2.4414 -0.80078 2.4414 -1.9922 c0 -1.1816 -0.73242 -2.0215 -2.4414 -2.0215 l-2.1582 0 z M226.69756640625 20 l-4.6582 -6.1816 l-1.1328 0 l0 6.1816 l-2.334 0 l0 -13.926 l2.334 0 l0 5.6738 l1.1133 0 l4.5801 -5.6738 l2.8613 0 l-5.4297 6.6504 l5.6543 7.2754 l-2.9883 0 z M244.5732171875 8.154 l-5.4102 0 l0 3.8574 l4.7852 0 l0 2.0605 l-4.7852 0 l0 3.8379 l5.4102 0 l0 2.0898 l-7.7734 0 l0 -13.926 l7.7734 0 l0 2.0801 z M260.16353984375 6.074 l0 2.0801 l-3.4375 0 l0 11.846 l-2.3242 0 l0 -11.846 l-3.4473 0 l0 -2.0801 l9.209 0 z M267.345715625 20 l0 -13.926 l2.334 0 l0 13.926 l-2.334 0 z M287.81906640625 6.074 l2.334 0 l0 13.926 l-2.6172 0 l-6.8359 -10.625 l0 10.625 l-2.3145 0 l0 -13.926 l2.5879 0 l6.8457 10.557 l0 -10.557 z M304.8252109375 20.18555 c-3.9453 0 -6.9336 -2.7051 -6.9336 -7.1191 c0 -4.4434 3.0273 -7.1875 7.0313 -7.1875 c2.6172 0 4.8242 1.1523 6.0352 3.2617 l-2.0605 1.1035 c-0.82031 -1.5527 -2.2852 -2.2852 -3.9746 -2.2852 c-2.6465 0 -4.6777 1.8066 -4.6777 5.0586 c0 3.1836 1.9531 5.0977 4.7656 5.0977 c2.1289 0 3.8965 -1.1426 4.248 -3.5352 l-4.248 0 l0 -1.9238 l6.4844 0 l0 7.3438 l-1.8652 0 l0 -2.2656 c-0.91797 1.543 -2.5391 2.4512 -4.8047 2.4512 z"/></g>
			</g>
		</svg>
	